# xmcd
#
# Track frame offsets:
#	150
#	15709
#	33317
#	51366
#	67984
#	82165
#	97487
#	109915
#	127060
#	143389
#	159311
#	172753
#	198710
#	212939
#
# Disc length: 3007 seconds
#
# Revision: 0
# Processed by: cddbd v1.5.2PL0 Copyright (c) Steve Scherf et al.
# Submitted via: audiograbber 1.83.01
#
DISCID=ca0bbd0e
DTITLE=Gheorghe Zamfir - Gheorghe Zamfir And Friends CD3
DYEAR=2007
DGENRE=Easy Listening
TTITLE0=Edward Simoni - Adlerflug
TTITLE1=Gheorghe Zamfir - Memory
TTITLE2=Pepe Solera - Romanze D'Amore
TTITLE3=Daniela de Santos - Makarioe
TTITLE4=Ulrich Herkenhoff - La Noche De Amor
TTITLE5=Gheorghe Zamfir - Theme From Limelight
TTITLE6=Pepe Solera - Im schönsten Wiesengrunde
TTITLE7=Daniela de Santos - Mundo Nuevo - Album Version
TTITLE8=Edward Simoni - Guantanamera
TTITLE9=Pepe Solera - Kein schöner Land
TTITLE10=Friedbert Kerschbaumer - Rosenmelodie
TTITLE11=Gheorghe Zamfir - People
TTITLE12=Daniela de Santos - Sevenlight
TTITLE13=Pepe Solera - Muss i denn...
EXTD=
EXTT0=
EXTT1=
EXTT2=
EXTT3=
EXTT4=
EXTT5=
EXTT6=
EXTT7=
EXTT8=
EXTT9=
EXTT10=
EXTT11=
EXTT12=
EXTT13=
PLAYORDER=
